<?xml version="1.0" standalone="no"?>
<!DOCTYPE svg PUBLIC "-//W3C//DTD SVG 20010904//EN"
 "http://www.w3.org/TR/2001/REC-SVG-20010904/DTD/svg10.dtd">
<svg version="1.0" xmlns="http://www.w3.org/2000/svg"
 width="150.000000pt" height="42.000000pt" viewBox="0 0 150.000000 42.000000"
 preserveAspectRatio="xMidYMid meet">

<g transform="translate(0.000000,42.000000) scale(0.100000,-0.100000)"
fill="#000000" stroke="none">
<path d="M354 406 c-11 -28 1 -51 25 -51 32 0 49 28 32 49 -17 20 -50 21 -57
2z m43 -30 c-4 -9 -11 -16 -17 -16 -17 0 -24 31 -9 41 18 11 34 -5 26 -25z"/>
<path d="M130 385 c-46 -21 -68 -42 -91 -87 -25 -49 -25 -132 -1 -178 36 -66
42 -65 152 45 55 55 100 105 100 112 0 42 -108 58 -153 23 -31 -24 -50 -78
-41 -114 11 -45 37 -26 40 29 2 36 36 65 77 65 31 0 31 -1 -48 -80 -77 -78
-80 -79 -92 -57 -21 37 -16 110 10 148 60 90 181 90 249 -1 43 -59 25 -158
-38 -204 -33 -23 -103 -34 -114 -16 -12 20 -49 -5 -43 -30 5 -17 14 -20 59
-20 29 0 65 5 81 11 64 24 122 109 123 179 0 48 -37 118 -83 154 -46 36 -131
46 -187 21z"/>
<path d="M390 325 c0 -9 5 -15 11 -13 6 2 11 8 11 13 0 5 -5 11 -11 13 -6 2
-11 -4 -11 -13z"/>
<path d="M511 308 c-1 -16 4 -28 9 -28 12 0 12 8 0 35 -8 18 -9 17 -9 -7z"/>
<path d="M567 310 c-4 -15 0 -20 13 -20 13 0 17 5 13 20 -3 11 -9 20 -13 20
-4 0 -10 -9 -13 -20z"/>
<path d="M627 312 c1 -8 3 -16 3 -18 0 -3 5 -2 10 1 6 3 10 14 10 23 0 13 -2
14 -9 3 -5 -7 -11 -9 -13 -5 -3 5 -3 3 -1 -4z"/>
<path d="M686 315 c-9 -23 -8 -25 9 -25 17 0 19 9 6 28 -7 11 -10 10 -15 -3z"/>
<path d="M740 313 c0 -12 8 -19 20 -20 15 -1 20 4 19 20 0 12 -3 16 -6 9 -4
-10 -8 -10 -19 -1 -11 9 -14 8 -14 -8z"/>
<path d="M810 305 c0 -18 4 -23 15 -19 8 4 15 15 15 25 0 10 -7 19 -15 19 -9
0 -15 -9 -15 -25z"/>
<path d="M870 311 c0 -21 17 -37 27 -27 3 3 1 12 -6 20 -9 11 -9 15 1 19 8 4
7 6 -4 6 -11 1 -18 -6 -18 -18z"/>
<path d="M930 312 c0 -10 7 -19 15 -19 8 0 15 9 15 19 0 10 -7 18 -15 18 -8 0
-15 -8 -15 -18z"/>
<path d="M992 310 c0 -14 2 -19 5 -12 2 6 2 18 0 25 -3 6 -5 1 -5 -13z"/>
<path d="M1036 314 c-9 -22 -8 -24 9 -24 8 0 15 6 15 14 0 22 -17 28 -24 10z"/>
<path d="M1099 328 c-7 -24 -5 -38 6 -38 8 0 13 9 12 20 -1 16 -14 29 -18 18z"/>
<path d="M510 180 l0 -90 50 0 c47 0 50 2 50 25 0 20 -5 25 -26 25 -14 0 -23
4 -19 10 3 6 15 10 26 10 12 0 19 7 19 20 0 15 -7 20 -25 20 -14 0 -25 5 -25
10 0 6 11 10 25 10 20 0 25 5 25 25 0 23 -3 25 -50 25 l-50 0 0 -90z"/>
<path d="M681 252 c-10 -19 -61 -151 -61 -158 0 -2 14 -4 30 -4 17 0 30 5 30
10 0 6 11 10 24 10 14 0 28 -4 31 -10 9 -15 58 -13 53 3 -56 161 -81 197 -107
149z m38 -98 c-8 -10 -14 -11 -24 -1 -19 17 2 42 21 26 11 -9 11 -15 3 -25z"/>
<path d="M818 259 c-26 -15 -22 -59 9 -91 l27 -28 -27 0 c-22 0 -27 -5 -27
-25 0 -25 14 -31 65 -25 49 5 61 57 23 98 -16 17 -19 26 -10 29 6 3 12 16 12
29 0 20 -5 24 -27 24 -16 0 -36 -5 -45 -11z"/>
<path d="M900 263 c0 -5 11 -26 25 -48 16 -26 24 -55 25 -82 0 -41 1 -43 30
-43 29 0 30 2 30 43 1 27 9 56 25 82 14 22 25 43 25 48 0 15 -59 7 -70 -10
-10 -17 -10 -17 -20 0 -11 17 -70 25 -70 10z"/>
<path d="M1070 181 l0 -91 79 0 c44 0 83 5 86 10 8 13 55 13 55 0 0 -5 14 -10
30 -10 17 0 30 1 30 3 0 2 -15 41 -33 88 -46 118 -62 119 -107 2 -24 -61 -35
-81 -38 -65 -2 14 -10 22 -22 22 -16 0 -19 9 -22 63 -3 59 -4 62 -30 65 l-28
3 0 -90z m207 -26 c-17 -19 -42 2 -26 21 9 11 15 11 25 3 10 -8 11 -14 1 -24z"/>
<path d="M1310 263 c0 -4 15 -45 33 -91 29 -75 34 -82 57 -80 21 3 29 16 57
87 18 47 33 86 33 88 0 2 -13 3 -30 3 -25 0 -32 -6 -46 -37 l-17 -38 -15 38
c-12 31 -20 37 -43 37 -16 0 -29 -3 -29 -7z"/>
<path d="M270 205 c-6 -8 -9 -18 -6 -24 11 -17 -24 -41 -58 -41 -33 0 -62 -20
-49 -33 12 -13 89 -7 110 8 12 9 32 29 43 46 18 24 19 33 10 44 -16 19 -34 19
-50 0z"/>
<path d="M1452 113 c2 -10 10 -18 18 -18 22 0 18 29 -3 33 -14 3 -18 -1 -15
-15z"/>
<path d="M7 64 c-25 -25 8 -70 43 -59 32 10 24 59 -10 63 -14 2 -29 0 -33 -4z
m48 -14 c4 -6 1 -17 -5 -26 -10 -11 -16 -12 -26 -3 -11 9 -11 15 -3 25 14 17
25 18 34 4z"/>
</g>
</svg>
